<svg width="376" height="364" viewBox="0 0 376 364" fill="none" xmlns="http://www.w3.org/2000/svg">
<path d="M353.54 168.835C353.874 170.22 354.167 171.596 354.43 173.009C354.481 171.64 354.362 170.257 354.106 168.911C353.529 166.527 352.741 164.228 351.725 161.989C352.389 164.262 353.029 166.551 353.54 168.835Z" fill="white" fill-opacity="0.1"/>
<path d="M72.5783 85.6228C72.2623 87.5392 71.9918 89.4435 71.6595 91.3349C71.9229 90.5928 72.1245 89.8377 72.2435 89.0653C72.4275 87.9833 72.4964 86.834 72.5783 85.6228Z" fill="white" fill-opacity="0.1"/>
<path d="M51.8254 138.937L51.6713 139.056C49.555 140.724 47.6473 142.629 45.9819 144.715C47.8939 142.789 49.8515 140.851 51.8254 138.937Z" fill="white" fill-opacity="0.1"/>
<path d="M108.176 97.2532C110.015 96.3893 111.884 95.5961 113.768 94.8279C111.247 95.5488 108.803 96.5228 106.468 97.6922C105.296 98.3513 104.189 99.1103 103.114 99.9192C104.777 98.9752 106.452 98.0767 108.176 97.2532Z" fill="white" fill-opacity="0.1"/>
<path d="M10.1613 178.381C10.3453 179.454 10.4425 180.53 10.4529 181.61C10.4372 182.814 10.3347 184.02 10.1247 185.226C10.2709 184.632 10.3759 184.029 10.4603 183.422C10.6418 181.736 10.5508 180.014 10.1613 178.381Z" fill="white" fill-opacity="0.1"/>
<path d="M70.4313 156.506L68.7786 155.965C69.654 156.515 70.6053 156.908 71.6118 157.141C71.9462 157.19 72.2893 157.197 72.6411 157.163C71.8408 156.974 71.1404 156.719 70.4313 156.506Z" fill="white" fill-opacity="0.1"/>
<path d="M131.143 88.087C129.733 88.1358 128.325 88.3791 126.969 88.7841C124.04 89.8073 121.411 91.5614 118.623 92.9375C122.819 91.3181 127.038 89.7899 131.143 88.087Z" fill="white" fill-opacity="0.1"/>
<path d="M150.094 132.645C149.479 132.085 148.81 131.578 148.099 131.17C147.848 131.031 147.577 130.888 147.296 130.786C147.49 130.891 147.699 131.021 147.888 131.147C148.943 131.972 149.918 132.866 150.835 133.835C151.651 134.566 152.546 135.228 153.483 135.791C152.266 134.717 151.118 133.614 150.094 132.645Z" fill="white" fill-opacity="0.1"/>
<path d="M284.475 75.1834L283.691 75.9454C284.334 75.6495 284.938 75.2373 285.435 74.7167C284.914 74.7366 284.419 74.6327 283.949 74.4049L284.475 75.1834Z" fill="white" fill-opacity="0.1"/>
<path d="M258.982 87.3538C261.23 88.7523 263.604 89.9617 266.067 90.9527C269.131 92.1562 272.314 93.1043 275.536 93.7591C278.746 94.4759 282.04 94.9949 285.331 95.427L290.539 96.0673C289.982 95.9504 289.404 95.8291 288.868 95.7166C282.476 94.4612 276.132 92.8713 269.904 90.939C266.21 89.7545 262.622 88.484 258.982 87.3538Z" fill="white" fill-opacity="0.1"/>
<path d="M306.107 102.761C306.148 102.77 306.107 102.761 306.107 102.761C306.107 102.761 306.123 102.786 306.107 102.761Z" fill="white" fill-opacity="0.1"/>
<path d="M347.243 149.475C348.21 151.639 349.103 153.852 349.888 156.064C349.324 153.209 349.038 150.261 347.773 147.668C346.537 145.448 344.936 143.431 343.055 141.721C344.648 144.189 346.041 146.788 347.243 149.475Z" fill="white" fill-opacity="0.1"/>
<path d="M308.406 111.304C309.147 112.494 310.088 113.553 311.2 114.412C311.836 114.976 312.476 115.52 313.12 116.043C311.866 114.832 310.621 113.579 309.426 112.294C308.947 111.805 308.523 111.264 308.143 110.71C308.207 110.917 308.313 111.133 308.406 111.304Z" fill="white" fill-opacity="0.1"/>
<path d="M143.866 81.4473C145.49 80.2795 146.963 78.9076 148.239 77.3436C148.737 76.7153 149.202 76.0372 149.61 75.3254C149.522 75.4363 149.438 75.5265 149.351 75.6373C146.848 78.3233 144.129 80.8127 141.246 83.0525L140.855 83.3797C141.881 82.7978 142.901 82.1497 143.866 81.4473Z" fill="white" fill-opacity="0.1"/>
<path d="M188.896 44.1326C189.704 43.9788 190.501 43.6719 191.195 43.2358C191.316 43.1749 191.42 43.089 191.545 43.0075C190.32 43.5048 189.026 43.9228 187.757 44.3246C188.134 44.2743 188.536 44.2078 188.896 44.1326Z" fill="white" fill-opacity="0.1"/>
<path d="M171.707 55.2226C172.463 54.39 173.187 53.5074 173.96 52.5922L167.641 58.7873C168.315 58.3469 168.977 57.8609 169.602 57.3455C170.349 56.6617 171.054 55.9693 171.707 55.2226Z" fill="white" fill-opacity="0.1"/>
<path d="M216.97 38.8612C217.35 40.1264 217.37 41.4668 217.04 42.7335C217.189 42.3337 217.316 41.9295 217.382 41.5124C217.504 40.5249 217.323 39.5387 216.885 38.6494C216.913 38.72 216.941 38.7906 216.97 38.8612Z" fill="white" fill-opacity="0.1"/>
<path d="M277.969 69.0335C278.627 69.3872 279.272 69.8027 279.888 70.2552C279.733 70.0718 279.573 69.909 279.434 69.7505C277.407 67.7087 274.465 67.0483 271.533 66.7561C273.786 67.2074 275.949 67.9846 277.969 69.0335Z" fill="white" fill-opacity="0.1"/>
<path d="M91.1876 107.588L91.8486 107.21C91.0302 107.62 90.2118 108.03 89.3684 108.456C90.0034 108.202 90.6058 107.897 91.1876 107.588Z" fill="white" fill-opacity="0.1"/>
<path d="M180.661 80.7003C180.55 80.7199 180.433 80.7602 180.301 80.7755L180.582 80.7698C180.607 80.7535 180.636 80.7166 180.661 80.7003Z" fill="white" fill-opacity="0.1"/>
<path d="M87.0225 109.063C86.5557 109.03 86.0855 108.909 85.6696 108.736C85.4482 108.97 85.2268 109.203 84.9762 109.474C85.7828 109.428 86.5862 109.295 87.3819 109.095L87.0225 109.063Z" fill="white" fill-opacity="0.1"/>
<path d="M75.7383 156.671C76.6774 156.61 77.6231 156.722 78.5092 157.016C78.267 156.836 78.0041 156.651 77.7326 156.508C77.4698 156.323 77.1733 156.197 76.8639 156.132C76.5544 156.067 76.232 156.064 75.9171 156.127C75.6219 156.302 75.3593 156.527 75.113 156.777L75.7383 156.671Z" fill="white" fill-opacity="0.1"/>
<path d="M262.347 86.0988C260.671 86.2858 258.958 86.3359 257.272 86.2622C257.761 86.6018 258.258 86.9002 258.751 87.2192C259.95 86.8457 261.148 86.4723 262.347 86.0988Z" fill="white" fill-opacity="0.1"/>
<path d="M305.315 132.702C304.38 131.105 303.677 129.427 302.354 128.136C301.635 127.662 300.806 127.402 299.955 127.353C299.785 127.339 299.607 127.366 299.446 127.418C299.284 127.47 299.134 127.568 299.001 127.691C298.888 127.818 298.8 127.929 298.724 128.086L298.408 128.666C298.261 128.958 298.113 129.251 297.95 129.518C298.501 128.944 298.941 128.282 299.246 127.549C300.136 127.822 300.971 128.256 301.739 128.805C302.695 129.587 303.534 130.518 304.248 131.529C304.656 132.046 305.06 132.584 305.477 133.059C305.458 132.947 305.397 132.827 305.315 132.702Z" fill="white" fill-opacity="0.1"/>
<path d="M277.21 105.899C274.095 104.426 270.933 103.073 267.737 101.777C264.541 100.481 261.298 99.305 258.089 98.0712C245.161 93.3751 231.649 90.4315 217.95 89.302C204.251 88.1726 190.496 88.54 176.864 90.377C163.248 92.239 149.816 95.2816 136.735 99.5188C133.463 100.535 130.223 101.708 126.955 102.811C123.69 103.893 120.539 105.257 117.315 106.456C114.087 107.675 110.96 109.13 107.793 110.47C104.625 111.809 101.499 113.157 98.4698 114.763C92.448 118.003 86.7392 121.805 81.3976 126.114C75.9409 130.357 70.4885 134.579 65.1958 138.963C62.6411 141.078 60.1191 143.243 57.6296 145.457C60.9117 143.366 64.5556 141.911 68.3747 141.161C73.4857 140.208 78.7624 140.518 83.7259 142.012C86.2028 142.834 88.6027 143.919 90.8389 145.272C93.0175 146.591 95.1082 148.021 97.1316 149.567C99.0975 151.078 101.135 152.454 103.285 153.703C105.419 154.927 107.759 155.784 110.182 156.25L110.192 156.51C107.581 156.738 104.951 156.337 102.529 155.355C100.128 154.377 97.8457 153.143 95.7137 151.704C91.4444 148.955 87.6971 145.669 83.1113 144.017C78.5625 142.394 73.7015 141.848 68.9041 142.436C64.1067 143.024 59.526 144.734 55.494 147.423C48.4174 153.739 41.8035 160.518 35.6567 167.741C31.1581 172.96 27.0244 178.493 23.2893 184.283C19.5705 190.097 16.271 196.171 13.4199 202.469C18.6985 189.633 25.8623 177.668 34.6803 166.954C43.4038 156.178 53.4806 146.547 63.953 137.496C66.5999 135.25 69.2424 133.024 71.9381 130.853C74.6339 128.682 77.3623 126.561 80.0743 124.414C85.4832 119.989 91.3005 116.081 97.4265 112.755C98.9765 111.938 100.538 111.167 102.137 110.425C103.715 109.679 105.318 109.024 106.903 108.343C110.096 106.988 113.239 105.557 116.46 104.272C119.68 102.987 122.901 101.701 126.162 100.532C128.269 99.8324 130.364 99.0868 132.459 98.3412C137.83 96.1496 143.173 93.8874 148.442 91.4591C151.124 90.2764 153.799 89.0274 156.441 87.7285C159.066 86.5122 161.622 85.1091 164.064 83.5312C168.881 80.383 172.316 75.7162 176.085 71.2055C177.972 68.8861 179.99 66.6589 182.11 64.561C184.256 62.4467 186.712 60.6993 189.424 59.3721L189.55 59.5925C184.954 63.326 181.639 68.0394 178.083 72.7672C176.307 75.1745 174.363 77.4603 172.259 79.5832C170.105 81.7388 167.705 83.6273 165.11 85.2162C162.532 86.7225 159.84 88.0541 157.08 89.1988C154.352 90.3935 151.617 91.5219 148.895 92.5884C146.334 93.6027 143.761 94.5713 141.172 95.5149C152.749 92.0827 164.601 89.592 176.56 88.0288C190.345 86.1808 204.289 85.9393 218.134 87.2935C231.971 88.6889 245.559 91.8856 258.539 96.851C261.768 98.1967 264.964 99.4924 268.126 100.846C271.288 102.199 274.445 103.681 277.518 105.252C280.617 106.808 283.648 108.478 286.624 110.202C289.618 111.951 292.523 113.811 295.394 115.728C289.562 112.112 283.467 108.828 277.21 105.899ZM228.479 117.028L228.291 117.204C226.32 115.821 224.5 114.232 222.846 112.462C222.036 111.603 221.28 110.69 220.599 109.728C219.954 108.795 219.231 107.932 218.432 107.118C217.671 106.333 216.776 105.671 215.809 105.145C214.71 104.634 213.645 104.066 212.618 103.419C211.583 102.706 210.722 101.879 209.79 101.188C208.888 100.46 207.855 99.9415 206.729 99.6621L206.781 99.4144C208.012 99.5004 209.199 99.9003 210.247 100.551C211.304 101.161 212.277 101.861 213.293 102.354C214.351 102.857 215.426 103.276 216.539 103.617C217.734 104.084 218.844 104.748 219.836 105.559C221.736 107.079 223.431 108.857 224.871 110.819C226.3 112.735 227.5 114.818 228.479 117.028ZM155.991 116.965C157.631 118.387 159.23 119.8 160.93 121.04C162.605 122.297 164.347 123.438 166.127 124.501C169.819 126.613 173.769 128.217 177.868 129.315L177.816 129.562C173.341 129.744 168.889 128.788 164.898 126.765C162.89 125.762 161 124.503 159.307 123.027C157.634 121.555 156.111 119.986 154.559 118.453C151.508 115.442 148.444 112.385 144.65 110.555C142.753 109.639 140.695 109.078 138.605 108.876C136.465 108.707 134.303 108.642 132.153 108.729L132.143 108.468C134.312 108.191 136.492 108.067 138.667 108.07C139.783 108.089 140.877 108.211 141.954 108.416C143.048 108.645 144.124 108.957 145.178 109.372C149.358 111.112 152.752 114.13 155.991 116.965ZM87.2156 83.3071C88.5852 80.1679 89.9429 76.9832 91.2473 73.7442L95.2584 64.1769L95.506 64.2289C94.5523 67.5415 93.4954 70.8325 92.4591 74.1278C91.4229 77.4231 90.2629 80.6925 89.1235 83.9661C88.0829 87.2821 86.8817 90.5427 85.5197 93.7481C84.0795 96.9156 82.3798 99.9854 80.4585 102.879L80.2196 102.786C80.955 99.3847 81.9337 96.0558 83.135 92.7951C84.2907 89.5464 85.8623 86.4712 87.2156 83.3071ZM311.5 128.483C314.148 129.513 316.674 130.819 319.066 132.355C321.473 133.916 323.701 135.72 325.757 137.725C327.893 139.66 329.744 141.923 331.2 144.427C331.887 145.67 332.474 146.979 332.97 148.311C333.346 149.597 334.025 150.774 334.938 151.763L334.824 151.998C334.09 151.801 333.395 151.418 332.842 150.871C332.305 150.349 331.798 149.79 331.39 149.165C330.954 148.578 330.604 147.987 330.204 147.429C329.804 146.871 329.429 146.297 329.029 145.739C327.446 143.532 326.043 141.19 324.285 139.097C322.511 136.979 320.524 135.053 318.366 133.329C316.216 131.563 313.895 129.998 311.444 128.643L311.5 128.483ZM309.676 136.246C310.942 137.503 312.275 138.645 313.687 139.717C314.388 140.274 315.087 140.744 315.883 141.363C316.285 141.706 316.682 142.07 317.025 142.487C317.389 142.908 317.687 143.337 317.972 143.827C318.497 144.713 318.84 145.54 319.231 146.139C319.676 146.793 320.195 147.397 320.773 147.928C322.11 149.049 323.535 150.059 325.023 150.975C326.72 152.021 328.254 153.334 329.55 154.856C330.175 155.677 330.695 156.584 331.12 157.535L332.304 160.003C332.693 160.817 333.066 161.607 333.484 162.384C333.902 163.162 334.334 163.877 334.816 164.862C335.548 166.61 336.184 168.403 336.708 170.216C337.729 173.663 338.995 177.075 340.235 180.503C341.455 183.927 342.688 187.289 344.996 189.842L345.241 190.109C346.25 190.946 347.435 191.561 348.697 191.912C348.866 191.926 349.04 191.92 349.197 191.888C349.665 191.814 350.076 191.598 350.406 191.258L351.178 188.403C351.121 188.262 351.04 188.137 350.933 188.028C351.028 188.091 351.134 188.2 351.204 188.279C351.623 186.794 352.001 185.3 352.421 183.815C352.477 183.547 352.529 183.299 352.585 183.031C352.455 183.24 352.304 183.446 352.174 183.655C351.688 184.329 351.301 185.045 350.992 185.799C350.679 186.574 350.609 187.421 350.783 188.234C350.476 187.437 350.406 186.538 350.625 185.701C350.823 184.859 351.145 184.043 351.546 183.265C352.292 181.762 353.162 180.285 353.366 178.798C353.48 177.227 353.272 175.653 352.766 174.168C352.276 172.6 351.754 170.982 351.215 169.446C349.245 163.128 346.766 156.982 343.804 151.081C340.808 145.345 337.114 139.957 332.279 135.796C327.445 131.635 321.679 128.421 316.057 124.418C313.269 122.41 310.599 120.255 308.041 117.973C306.535 116.73 305.255 115.233 304.275 113.54C303.698 112.492 303.362 111.323 303.291 110.123C303.256 109.469 303.324 108.836 303.495 108.226C303.653 107.677 303.849 107.158 304.085 106.647C304.516 105.725 304.994 104.984 305.377 104.289C305.671 103.812 305.907 103.301 306.061 102.773C306.07 102.732 306.074 102.711 306.074 102.711C305.543 102.471 304.995 102.312 304.409 102.232L301.995 101.726L299.56 101.215C297.931 100.873 296.288 100.593 294.649 100.292C288.087 99.1301 281.367 97.9999 274.858 95.9658C271.601 94.959 268.447 93.672 265.423 92.0676C262.441 90.472 259.674 88.4688 257.211 86.1417C261.798 85.5311 266.256 84.0962 270.37 81.9425C272.361 80.8733 274.279 79.6379 276.074 78.269C277.415 77.2144 278.691 76.0599 279.873 74.8424C278.8 73.7982 277.576 72.9595 276.221 72.3304C274.34 71.5476 272.369 70.9831 270.367 70.6706C268.261 70.3365 266.125 70.1469 263.984 70.0854C261.823 70.0197 259.57 69.9779 257.408 69.9121C253.185 69.7153 248.955 70.1638 244.86 71.2009C240.89 72.2639 236.989 74.2253 232.874 76.0771C230.777 77.0377 228.619 77.8779 226.404 78.5769C224.127 79.3704 221.745 79.8403 219.341 80.0039C218.13 80.0298 216.931 79.9937 215.733 79.8501C214.598 79.7195 213.549 79.5856 212.565 79.5516C211.693 79.4979 210.807 79.6137 209.974 79.8913C209.625 80.0121 209.285 80.1992 208.981 80.4156C208.452 80.7788 207.94 81.1669 207.395 81.5051C205.213 82.6636 202.813 83.3236 200.352 83.4536C198.06 83.5975 195.729 83.5178 193.45 83.1903C188.953 82.6559 184.643 81.5359 180.255 80.7874C180.417 80.7352 180.558 80.6786 180.72 80.6263C182.542 79.0261 184.429 77.5257 186.427 76.1132C187.573 74.7589 188.834 73.4719 190.16 72.2847C191.911 70.8203 193.864 69.7218 195.592 68.4681C197.32 67.2144 198.913 65.7816 200.342 64.2066C203.209 61.0153 205.694 57.4854 207.674 53.6984C208.717 51.8054 209.708 49.8581 210.677 47.9065L212.111 44.9748C212.549 44.1186 212.914 43.2037 213.175 42.2672C213.384 41.5783 213.366 40.8419 213.17 40.1327C213.053 39.871 212.906 39.6463 212.689 39.4498C212.492 39.2577 212.246 39.0982 211.986 39.0006C211.228 38.7122 210.436 38.589 209.629 38.6352C208.674 38.6717 207.717 38.8158 206.768 39.0262C203.86 39.6442 201.115 40.9214 198.77 42.7567C197.999 43.3493 197.265 44.0787 196.414 44.8484C195.525 45.6963 194.567 46.4649 193.523 47.1294C192.354 47.8754 191.063 48.3804 189.692 48.6529C188.429 48.9265 187.286 49.0316 186.305 49.192C185.812 49.2825 185.386 49.3654 184.934 49.4646C184.524 49.5724 184.125 49.7258 183.743 49.9043C182.226 50.7711 180.73 51.9442 179.542 53.3974C178.167 54.9192 176.848 56.6896 175.298 58.4331C174.503 59.3439 173.639 60.1755 172.718 60.9735C171.78 61.7465 170.79 62.4652 169.75 63.109C167.741 64.3683 165.706 65.342 163.815 66.346C162.012 67.2391 160.315 68.3483 158.736 69.6117C158.027 70.2172 157.413 70.8857 156.868 71.6334C156.315 72.4224 155.815 73.2657 155.393 74.147C154.912 75.1021 154.414 76.1398 153.805 77.1972C153.175 78.2502 152.466 79.2653 151.668 80.1968C150.083 81.9978 148.282 83.6024 146.276 84.9487C144.366 86.2503 142.383 87.3858 140.302 88.3714C138.247 89.3408 136.184 90.1363 134.088 90.9894C125.752 94.1749 117.218 96.3493 109.171 99.4879C105.096 101.046 101.183 102.962 97.4411 105.194C95.5406 106.347 93.5793 107.379 91.5408 108.266C89.4817 109.148 87.266 109.545 85.0261 109.441C85.2062 109.199 85.3863 108.957 85.5751 108.673L85.4307 108.643C86.2194 107.45 87.0733 106.358 87.9608 105.208C90.5839 101.125 92.7878 96.7821 94.5508 92.2816C96.9449 86.2111 98.7581 79.9324 100.014 73.5368C100.348 71.9474 100.624 70.3244 100.896 68.722C101.167 67.1196 101.473 65.4596 101.577 64.0376C101.725 62.8188 101.535 61.5719 100.991 60.4665C100.714 60.042 100.321 59.6577 99.8854 59.3724C99.4498 59.087 98.9471 58.9168 98.4476 58.8336C97.2467 58.6031 96.0221 58.6909 94.8812 59.098C93.6112 59.6073 92.4673 60.337 91.4537 61.2664C90.311 62.2981 89.2541 63.434 88.2754 64.6078C87.2175 65.8513 86.1802 67.099 85.1842 68.3554C83.1682 70.7771 81.415 73.3831 79.9247 76.1737C79.2132 77.5113 78.6168 78.9163 78.1648 80.3515C77.7128 81.7868 77.4052 83.2523 77.242 84.7482C77.0658 86.306 76.9625 88.0299 76.5976 89.8714C76.2163 91.6878 75.5875 93.4523 74.7079 95.078C73.094 98.2521 71.1801 100.803 70.3434 103.558C69.9326 105.002 69.7239 106.51 69.6845 108.032C69.643 109.769 69.4778 111.48 69.2051 113.19C68.8531 114.969 68.233 116.692 67.362 118.277C66.5246 119.803 65.5558 121.238 64.4556 122.58C63.4053 123.89 62.2356 125.153 61.1863 126.355C60.1697 127.607 59.2019 128.934 58.3123 130.299C57.6159 131.36 56.9151 132.441 56.1936 133.518C55.1784 135.482 53.7972 137.239 52.1705 138.73C46.6641 145.569 40.998 152.246 35.3482 158.948L30.9874 164.024L28.7923 166.58C28.3323 167.13 27.7778 167.618 27.1786 168.009C26.3928 168.469 25.494 168.647 24.6058 168.568C23.8089 168.465 23.0346 168.152 22.3732 167.712C21.8432 167.363 21.3262 166.953 20.8591 166.51L19.6425 165.328C19.2819 164.994 18.8963 164.676 18.527 164.383C16.9727 163.065 15.1614 162.254 13.2221 161.847C12.2731 161.648 11.3024 161.552 10.3307 161.564C9.85519 161.572 9.37533 161.6 8.90743 161.674C8.53072 161.725 8.14101 161.837 7.7676 161.974C7.48971 162.066 7.24008 162.23 7.02738 162.422C6.88957 162.565 6.90587 162.59 6.8972 162.632C6.90381 162.806 6.95601 162.967 7.05379 163.117C7.2733 163.508 7.52212 163.862 7.77092 164.216C8.9151 166.051 10.1831 167.912 11.3794 169.908C12.6497 171.964 13.654 174.157 14.401 176.448C15.1384 178.887 15.3742 181.458 15.0813 183.982C14.7851 186.42 14.1132 188.8 13.1242 191.05C11.2503 195.462 8.66723 199.252 6.43587 203.007C1.86134 210.538 -2.15389 218.381 -5.59683 226.472C-9.12663 234.568 -12.146 242.899 -15.0297 251.302C-17.9133 259.705 -20.5168 268.21 -23.1496 276.752L-24.1642 279.944C-24.5209 280.925 -24.7993 281.944 -24.9747 282.985C-25.1404 283.877 -24.9466 284.801 -24.437 285.555C-23.7418 286.347 -22.963 287.049 -22.1169 287.636C-19.1051 290.014 -16.0975 292.413 -13.0444 294.799C-12.6372 295.014 -12.1833 295.109 -11.7447 295.072C-11.4505 295.004 -11.2095 294.882 -10.9968 294.69C-10.61 293.155 -10.4914 291.563 -10.654 289.978C-10.8548 288.06 -11.1923 286.179 -11.6872 284.33C-12.1692 282.418 -12.5599 280.483 -12.8432 278.549C-13.0679 276.54 -13.0982 274.53 -12.9342 272.517C-12.4542 268.588 -11.6854 264.719 -10.607 260.915C-9.64053 257.131 -8.53395 253.398 -7.40673 249.669C-6.27952 245.94 -5.03719 242.279 -3.71563 238.548C-3.0695 236.701 -2.38645 234.883 -1.68276 233.07C-0.995369 231.231 -0.283019 229.376 0.536818 227.523C2.19052 223.646 4.64242 220.173 7.72108 217.307C10.7997 214.44 14.4509 212.232 18.4249 210.847C19.4203 210.517 20.4484 210.237 21.4677 209.998C22.1962 209.914 22.8844 209.714 23.5693 209.427C24.0316 209.071 24.4288 208.616 24.6902 208.089C24.9515 207.562 25.0935 206.988 25.0867 206.405C25.1042 204.576 25.0099 202.768 24.7875 200.954C24.642 198.876 24.7115 196.8 24.9754 194.722C25.9971 186.467 29.7996 178.817 35.7919 173.049C41.4706 167.647 47.5708 162.699 54.0382 158.259C55.6857 157.182 57.3659 156.156 59.0742 155.2C59.9805 154.679 60.952 154.258 61.9594 153.973C63.0037 153.718 64.0709 153.662 65.1361 153.821C67.0916 154.253 68.9746 154.928 70.735 155.88C71.5951 156.297 72.4845 156.678 73.3912 156.976C73.5519 157.031 73.6963 157.062 73.8657 157.076L74.7852 156.902C75.1922 156.707 75.5427 156.372 75.9867 156.206C76.2862 156.01 76.6347 155.89 76.9701 155.831C77.3262 155.776 77.6856 155.808 78.032 155.903C78.7085 156.066 79.3763 156.271 80.0268 156.558C81.3234 157.154 82.5148 157.943 83.5641 158.896C84.5634 159.881 85.4456 161.014 86.1617 162.221C86.7474 163.227 87.4536 164.173 88.2726 164.991C88.5594 165.267 88.9004 165.489 89.2837 165.613C89.6627 165.757 90.059 165.819 90.452 165.794C91.5485 165.7 92.6341 165.454 93.6751 165.112C94.3427 164.908 95.0473 164.732 95.7431 164.598C96.5302 164.44 97.3455 164.352 98.1641 164.352C99.6852 164.391 101.188 164.62 102.652 165.035C104.017 165.408 105.261 165.841 106.457 166.2C109.919 167.25 113.579 167.566 117.18 167.136C119.651 166.857 122.08 166.268 124.399 165.375C125.595 164.915 126.761 164.384 127.879 163.778C128.461 163.469 129.006 163.131 129.571 162.797C130.041 162.099 130.355 161.324 130.524 160.519L130.283 160.124L129.44 158.804C128.89 157.935 128.336 157.086 127.74 156.336C126.687 154.886 125.243 153.764 123.575 153.091C122.545 152.659 121.57 152.174 120.616 151.586C120.045 151.229 119.532 150.798 119.074 150.314C118.673 149.864 118.277 149.393 117.926 148.91C117.693 148.581 117.436 148.268 117.153 147.972C116.957 147.78 116.731 147.624 116.501 147.49C115.756 147.14 114.993 146.872 114.189 146.703C110.023 145.613 106.072 143.814 102.515 141.365C100.765 140.157 99.1162 138.777 97.6009 137.273C96.8557 136.514 96.1398 135.717 95.4738 134.887C95.1305 134.471 94.8165 134.017 94.5275 133.547C94.2428 133.056 94.0992 132.509 94.1087 131.95C93.9073 130.96 93.9915 129.943 94.3189 128.999C94.5182 128.049 94.8206 127.121 95.1523 126.157C95.7962 124.115 97.0373 122.307 98.7119 120.999C99.5942 120.386 100.562 119.879 101.566 119.507C102.529 119.128 103.475 118.83 104.342 118.495C106.159 117.842 108.009 117.239 109.838 116.631C111.667 116.024 113.521 115.4 115.461 114.881C117.471 114.333 119.546 113.992 121.639 113.871C123.877 113.781 126.115 114.1 128.216 114.864C130.461 115.658 132.449 117.067 133.948 118.955C134.675 119.905 135.154 120.803 135.648 121.531C136.014 122.147 136.5 122.701 137.05 123.162C137.604 123.601 138.221 123.946 138.88 124.192C139.684 124.469 140.496 124.704 141.321 124.877C143.294 125.226 145.245 125.679 147.166 126.276C148.254 126.634 149.307 127.156 150.248 127.806C151.147 128.448 151.963 129.179 152.72 129.985C154.165 131.516 155.275 132.999 156.531 134.405C157.704 135.794 159.045 137.002 160.532 138.025C161.982 139.019 163.696 139.573 165.469 139.643C166.403 139.71 167.334 139.582 168.197 139.267C169.081 138.957 169.871 138.476 170.563 137.846C173.828 137.173 177.119 136.679 180.422 136.337C183.633 136.02 186.843 135.81 190.11 135.742C191.727 135.736 193.236 135.73 194.618 135.61C195.954 135.503 197.277 135.155 198.498 134.571C199.864 133.91 201.145 133.144 202.349 132.233L204.326 130.816L205.358 130.106C205.604 129.963 205.837 129.775 206.017 129.533C206.044 129.302 206.013 129.037 205.974 128.813C205.742 128.484 205.43 128.225 205.06 128.039C204.587 127.724 204.09 127.426 203.563 127.165C202.551 126.65 201.497 126.235 200.4 125.919C198.24 125.228 195.954 124.727 193.581 123.927C191.013 123.13 188.678 121.735 186.744 119.863C186.286 119.379 185.905 118.933 185.602 118.632C185.353 118.386 185.053 118.172 184.74 118.02C183.876 117.623 182.965 117.346 182.028 117.192C177.258 116.213 172.638 114.618 168.264 112.472C166.1 111.393 164.007 110.178 162.011 108.81C160.926 108.13 159.958 107.302 159.132 106.31C158.678 105.805 158.353 105.198 158.165 104.555C158.081 104.236 158.084 103.913 158.154 103.583C158.223 103.253 158.35 102.956 158.555 102.697C158.746 102.199 159.068 101.792 159.501 101.474C159.918 101.13 160.338 100.873 160.75 100.551C161.624 99.9796 162.526 99.4793 163.481 99.0333C165.403 98.1868 167.431 97.5563 169.489 97.191C173.618 96.5058 177.82 96.3963 181.978 96.9027C190.399 97.8296 198.42 100.871 205.344 105.75C206.268 106.375 207.138 107.054 207.974 107.789C208.462 108.237 208.92 108.721 209.304 109.254C209.708 109.791 210.058 110.382 210.333 111.021C210.58 111.59 210.757 112.08 210.901 112.52C211.034 112.914 211.212 113.296 211.395 113.658C211.781 114.386 212.262 115.068 212.798 115.698C215.017 118.362 218.446 120.396 221.841 122.488C225.236 124.58 228.676 126.66 232.188 128.604C233.915 129.613 235.717 130.573 237.452 131.54C238.299 132.02 239.209 132.405 240.141 132.686C240.524 132.81 240.937 132.897 241.338 132.938C242.128 132.866 242.891 132.617 243.577 132.222C244.347 131.22 244.735 129.987 244.657 128.72C244.579 127.346 244.145 126.027 243.375 124.874C242.523 123.596 241.621 122.351 240.64 121.175C239.623 119.863 238.648 118.451 237.736 117.053C235.923 114.194 234.402 111.181 233.192 108.018C231.941 104.846 231.133 101.508 230.789 98.1172C234.388 97.9028 238.007 98.2097 241.522 99.012C245.041 99.7937 248.504 100.844 251.89 102.158C258.541 104.847 264.918 108.125 271.013 111.925L275.53 114.727C277.009 115.684 278.493 116.62 280.021 117.652C281.586 118.713 283.059 119.906 284.423 121.205C285.737 122.537 286.943 123.975 288.02 125.516C288.958 126.898 289.999 128.194 291.145 129.405C291.673 129.968 292.256 130.478 292.896 130.914C293.139 131.094 293.41 131.237 293.69 131.339C293.847 131.415 293.991 131.446 294.165 131.439C294.412 131.491 295.095 130.6 295.643 129.939C296.207 129.303 296.809 128.589 297.382 127.912L297.833 127.403C298.009 127.181 298.242 126.993 298.467 126.846C298.958 126.562 299.537 126.468 300.069 126.601C300.96 126.874 301.773 127.411 302.378 128.12C303.911 129.131 305.016 130.742 306.119 132.159C307.163 133.65 308.39 134.985 309.676 136.246Z" fill="white" fill-opacity="0.1"/>
<path d="M96.3939 133.788L97.2986 134.301C96.0785 132.622 95.4032 130.606 95.3859 128.533C95.2763 128.747 95.1668 128.961 95.0529 129.196C94.5203 129.989 94.2178 130.917 94.1673 131.876C94.3988 132.313 94.7507 132.688 95.145 132.965C95.5349 133.262 95.9541 133.523 96.3939 133.788Z" fill="white" fill-opacity="0.1"/>
<path d="M182.983 112.436L183.23 112.488C178.868 110.387 174.209 108.979 169.407 108.359C168.61 108.256 167.788 108.17 166.996 108.046C167.882 108.34 168.763 108.655 169.633 108.923C174.015 110.317 178.485 111.492 182.983 112.436Z" fill="white" fill-opacity="0.1"/>
<path d="M236.57 106.291L238.476 109.213C237.717 107.394 236.629 105.7 235.27 104.273L235.143 104.16L236.57 106.291Z" fill="white" fill-opacity="0.1"/>
<path d="M195.024 120.437C195.468 120.681 195.937 120.909 196.402 121.158L195.228 120.286C193.422 118.937 191.595 117.584 189.726 116.33L190.102 116.797C191.485 118.315 193.164 119.551 195.024 120.437Z" fill="white" fill-opacity="0.1"/>
<path d="M172.845 139.187L175.758 139.367C174.009 138.978 172.29 138.445 170.626 137.751C170.319 138.29 169.922 138.746 169.451 139.142C170.585 139.079 171.726 139.081 172.845 139.187Z" fill="white" fill-opacity="0.1"/>
<path d="M205.297 131.731C204.901 132.488 204.468 133.216 204.019 133.92C203.696 134.434 203.336 134.918 202.939 135.374C204.162 134.165 205.073 132.697 205.589 131.059L205.297 131.731Z" fill="white" fill-opacity="0.1"/>
<path d="M232.608 98.5852C231.989 98.4553 231.383 98.2634 230.765 98.1335C231.279 98.7588 231.786 99.4254 232.255 100.063C232.194 99.5327 232.323 99.0209 232.608 98.5852Z" fill="white" fill-opacity="0.1"/>
<path d="M158.834 104.243C159.127 104.692 159.52 105.077 159.976 105.366C160.432 105.656 160.918 105.909 161.412 106.12L161.812 106.269C160.81 105.498 160.08 104.461 159.686 103.258C159.566 102.91 159.474 102.524 159.42 102.168L159.887 101.792L160.336 101.498C159.627 101.694 159.003 102.102 158.522 102.648C158.466 102.916 158.447 103.213 158.498 103.483C158.545 103.773 158.662 104.035 158.834 104.243Z" fill="white" fill-opacity="0.1"/>
<path d="M281.449 124.395C280.16 123.349 278.805 122.418 277.366 121.577L268.414 116.1C263.506 113.108 258.631 110.167 253.662 107.465C255.954 109.067 258.166 110.738 260.424 112.397C268.055 117.705 275.967 122.598 284.114 127.088C283.28 126.137 282.391 125.24 281.449 124.395Z" fill="white" fill-opacity="0.1"/>
</svg>
